            <svg
              width="175"
              height="170"
              viewBox="0 0 175 170"
              fill="none"
              xmlns="http://www.w3.org/2000/svg"
            >
              <mask id="path-1-inside-1_0_1" fill="white">
                <path d="M161.352 85C166.128 85 170.046 88.882 169.561 93.6332C167.707 111.793 160.042 128.96 147.588 142.513C133.174 158.199 113.396 167.9 92.1701 169.697C70.9438 171.494 49.8166 165.255 32.9713 152.216C16.126 139.177 4.79068 120.288 1.20965 99.289C-2.37139 78.29 2.06291 56.7118 13.6346 38.8266C25.2063 20.9415 43.0717 8.05323 63.6939 2.71362C84.316 -2.626 106.191 -0.0277108 124.989 9.99406C141.231 18.6536 154.153 32.3102 161.92 48.829C163.952 53.1509 161.543 58.1118 157.037 59.6947V59.6947C152.531 61.2776 147.644 58.874 145.5 54.6064C139.247 42.1593 129.267 31.8748 116.852 25.2557C101.879 17.2731 84.4552 15.2035 68.0291 19.4566C51.603 23.7098 37.3727 33.9756 28.1555 48.2216C18.9383 62.4677 15.4063 79.6553 18.2587 96.3816C21.111 113.108 30.1399 128.153 43.5577 138.54C56.9754 148.926 73.8039 153.895 90.7112 152.464C107.618 151.032 123.372 143.305 134.853 130.811C144.373 120.451 150.379 107.441 152.153 93.6246C152.762 88.8875 156.577 85 161.352 85V85Z" />
              </mask>
              <path
                d="M161.352 85C166.128 85 170.046 88.882 169.561 93.6332C167.707 111.793 160.042 128.96 147.588 142.513C133.174 158.199 113.396 167.9 92.1701 169.697C70.9438 171.494 49.8166 165.255 32.9713 152.216C16.126 139.177 4.79068 120.288 1.20965 99.289C-2.37139 78.29 2.06291 56.7118 13.6346 38.8266C25.2063 20.9415 43.0717 8.05323 63.6939 2.71362C84.316 -2.626 106.191 -0.0277108 124.989 9.99406C141.231 18.6536 154.153 32.3102 161.92 48.829C163.952 53.1509 161.543 58.1118 157.037 59.6947V59.6947C152.531 61.2776 147.644 58.874 145.5 54.6064C139.247 42.1593 129.267 31.8748 116.852 25.2557C101.879 17.2731 84.4552 15.2035 68.0291 19.4566C51.603 23.7098 37.3727 33.9756 28.1555 48.2216C18.9383 62.4677 15.4063 79.6553 18.2587 96.3816C21.111 113.108 30.1399 128.153 43.5577 138.54C56.9754 148.926 73.8039 153.895 90.7112 152.464C107.618 151.032 123.372 143.305 134.853 130.811C144.373 120.451 150.379 107.441 152.153 93.6246C152.762 88.8875 156.577 85 161.352 85V85Z"
                stroke="#F8964C"
                stroke-width="50"
                mask="url(#path-1-inside-1_0_1)"
              />
              <mask id="path-2-inside-2_0_1" fill="white">
                <path d="M161.352 85C166.128 85 170.046 88.8819 169.561 93.6332C167.815 110.73 160.917 126.971 149.679 140.151C136.563 155.533 118.394 165.737 98.4325 168.932C78.4714 172.127 58.0251 168.102 40.7633 157.582C25.9734 148.568 14.3508 135.29 7.35722 119.592C5.41364 115.23 7.92374 110.319 12.4611 108.829C16.9985 107.338 21.8359 109.841 23.8922 114.151C29.5245 125.958 38.4888 135.941 49.7643 142.813C63.5138 151.193 79.7998 154.399 95.6994 151.854C111.599 149.31 126.071 141.182 136.519 128.929C145.086 118.881 150.487 106.599 152.153 93.6244C152.762 88.8874 156.577 85 161.352 85Z" />
              </mask>
              <path
                d="M161.352 85C166.128 85 170.046 88.8819 169.561 93.6332C167.815 110.73 160.917 126.971 149.679 140.151C136.563 155.533 118.394 165.737 98.4325 168.932C78.4714 172.127 58.0251 168.102 40.7633 157.582C25.9734 148.568 14.3508 135.29 7.35722 119.592C5.41364 115.23 7.92374 110.319 12.4611 108.829C16.9985 107.338 21.8359 109.841 23.8922 114.151C29.5245 125.958 38.4888 135.941 49.7643 142.813C63.5138 151.193 79.7998 154.399 95.6994 151.854C111.599 149.31 126.071 141.182 136.519 128.929C145.086 118.881 150.487 106.599 152.153 93.6244C152.762 88.8874 156.577 85 161.352 85Z"
                stroke="#22A447"
                stroke-width="50"
                mask="url(#path-2-inside-2_0_1)"
              />
              <path
                d="M157.864 46.7649C153.914 39.0853 148.789 32.0857 142.686 26.014C140.109 23.4498 135.934 23.8105 133.583 26.5841V26.5841C131.232 29.3577 131.601 33.4912 134.14 36.0942C138.944 41.0213 142.997 46.6454 146.156 52.787C150.321 60.8838 152.85 69.7216 153.599 78.7958C154.348 87.87 153.302 97.0029 150.522 105.673C148.413 112.25 145.337 118.462 141.405 124.11C139.328 127.094 139.642 131.232 142.416 133.583V133.583C145.19 135.934 149.367 135.605 151.489 132.653C156.514 125.662 160.422 117.917 163.059 109.694C166.368 99.3771 167.612 88.5099 166.72 77.7126C165.829 66.9153 162.82 56.3992 157.864 46.7649Z"
                stroke="#D8D8D8"
                stroke-width="15"
              />
            </svg>
